<?xml version="1.0" encoding="iso-8859-1"?>
<!-- Uploaded to: SVG Repo, www.svgrepo.com, Generator: SVG Repo Mixer Tools -->
<svg fill="#000000" height="800px" width="800px" version="1.1" id="Layer_1" xmlns="http://www.w3.org/2000/svg" xmlns:xlink="http://www.w3.org/1999/xlink" 
	 viewBox="0 0 512 512" xml:space="preserve">
<g>
	<g>
		<g>
			<path d="M502.747,240.578c5.11,0,9.253-4.143,9.253-9.253v-24.675c0-66.328-53.961-120.289-120.289-120.289H9.253
				C4.143,86.361,0,90.504,0,95.614v320.771c0,5.11,4.143,9.253,9.253,9.253h456.482c25.511,0,46.265-20.754,46.265-46.265V268.337
				c0-5.11-4.143-9.253-9.253-9.253c-5.11,0-9.253,4.143-9.253,9.253v111.036c0,15.307-12.452,27.759-27.759,27.759h-160.41
				c5.822-7.738,9.278-17.351,9.278-27.759V206.651c0-29.645-10.879-58.126-30.632-80.195c-3.409-3.809-9.258-4.133-13.065-0.723
				c-3.807,3.409-4.132,9.258-0.723,13.065c16.711,18.671,25.915,42.767,25.915,67.853v172.723
				c0,15.307-12.452,27.759-27.759,27.759H18.506V104.867h31.775c4.298,21.092,22.992,37.012,45.334,37.012
				c22.343,0,41.035-15.92,45.334-37.012h250.763c56.124,0,101.783,45.659,101.783,101.783v24.675
				C493.494,236.437,497.637,240.578,502.747,240.578z M95.614,123.373c-12.062,0-22.348-7.737-26.167-18.506h52.335
				C117.962,115.637,107.678,123.373,95.614,123.373z"/>
			<path d="M172.723,342.361c0,25.511,20.754,46.265,46.265,46.265s46.265-20.754,46.265-46.265s-20.754-46.265-46.265-46.265
				S172.723,316.85,172.723,342.361z M218.988,314.602c15.307,0,27.759,12.452,27.759,27.759s-12.452,27.759-27.759,27.759
				s-27.759-12.452-27.759-27.759S203.681,314.602,218.988,314.602z"/>
			<path d="M101.783,209.735c-22.109,0-40.096,17.988-40.096,40.096c0,22.109,17.988,40.096,40.096,40.096
				s40.096-17.988,40.096-40.096C141.88,227.723,123.892,209.735,101.783,209.735z M101.783,271.422
				c-11.904,0-21.59-9.686-21.59-21.59c0-11.904,9.686-21.59,21.59-21.59s21.59,9.686,21.59,21.59
				C123.373,261.736,113.687,271.422,101.783,271.422z"/>
			<path d="M228.241,188.145c0-8.504-6.918-15.422-15.422-15.422s-15.422,6.918-15.422,15.422s6.918,15.422,15.422,15.422
				S228.241,196.649,228.241,188.145z M209.735,188.145c0-1.7,1.384-3.084,3.084-3.084s3.084,1.384,3.084,3.084
				c0,1.7-1.384,3.084-3.084,3.084S209.735,189.845,209.735,188.145z"/>
		</g>
	</g>
</g>
</svg>